<?xml version="1.0" standalone="no"?>
<!DOCTYPE svg PUBLIC "-//W3C//DTD SVG 20010904//EN" "http://www.w3.org/TR/2001/REC-SVG-20010904/DTD/svg10.dtd">
<svg version="1.0" xmlns="http://www.w3.org/2000/svg"
    width="1005.000000pt" height="882.000000pt" viewBox="0 0 1005.000000 882.000000"
    preserveAspectRatio="xMidYMid meet">

    <g transform="translate(0.000000,882.000000) scale(0.100000,-0.100000)"
        fill="#ffffff" stroke="none">
        <path
            d="M2540 8740 c0 -5 -7 -10 -15 -10 -8 0 -15 -7 -15 -15 0 -8 -7 -15
-15 -15 -8 0 -15 -7 -15 -15 0 -8 -7 -15 -15 -15 -8 0 -15 -7 -15 -15 0 -8 -5
-15 -11 -15 -6 0 -24 -13 -41 -30 -16 -16 -36 -30 -44 -30 -8 0 -14 -7 -14
-15 0 -8 -7 -15 -15 -15 -8 0 -15 -7 -15 -15 0 -8 -5 -15 -10 -15 -6 0 -21
-11 -34 -25 -13 -14 -28 -25 -35 -25 -6 0 -11 -7 -11 -15 0 -8 -7 -15 -15 -15
-8 0 -15 -7 -15 -15 0 -8 -7 -15 -15 -15 -8 0 -15 -7 -15 -15 0 -8 -7 -15 -15
-15 -8 0 -15 -7 -15 -15 0 -8 -7 -15 -15 -15 -8 0 -15 -7 -15 -15 0 -8 -7 -15
-15 -15 -8 0 -15 -7 -15 -15 0 -8 -7 -15 -15 -15 -8 0 -15 -7 -15 -15 0 -8 -7
-15 -15 -15 -8 0 -15 -4 -15 -10 0 -5 -11 -12 -25 -16 -14 -3 -25 -12 -25 -20
0 -8 -7 -14 -15 -14 -8 0 -15 -7 -15 -15 0 -8 -7 -15 -15 -15 -8 0 -15 -7 -15
-15 0 -8 -7 -15 -15 -15 -8 0 -15 -7 -15 -15 0 -8 -7 -15 -15 -15 -8 0 -15 -7
-15 -15 0 -8 -5 -15 -10 -15 -6 0 -21 -11 -34 -25 -13 -14 -28 -25 -35 -25 -6
0 -11 -7 -11 -15 0 -8 -7 -15 -15 -15 -8 0 -15 -7 -15 -15 0 -8 -7 -15 -15
-15 -8 0 -15 -7 -15 -15 0 -8 -7 -15 -15 -15 -8 0 -15 -7 -15 -15 0 -8 -7 -15
-15 -15 -8 0 -15 -7 -15 -15 0 -8 -7 -15 -15 -15 -8 0 -15 -7 -15 -15 0 -8 -5
-15 -11 -15 -6 0 -24 -13 -41 -30 -16 -16 -36 -30 -44 -30 -8 0 -14 -7 -14
-15 0 -8 -7 -15 -15 -15 -8 0 -15 -7 -15 -15 0 -8 -7 -15 -15 -15 -8 0 -15 -7
-15 -15 0 -8 -7 -15 -15 -15 -8 0 -15 -7 -15 -15 0 -8 -7 -15 -15 -15 -8 0
-15 -7 -15 -15 0 -8 -7 -15 -15 -15 -8 0 -15 -4 -15 -10 0 -5 -7 -10 -15 -10
-8 0 -15 -7 -15 -15 0 -8 -7 -15 -15 -15 -8 0 -15 -7 -15 -15 0 -8 -7 -15 -15
-15 -8 0 -15 -7 -15 -15 0 -8 -7 -15 -15 -15 -8 0 -15 -7 -15 -15 0 -8 -7 -15
-15 -15 -8 0 -15 -7 -15 -15 0 -8 -7 -15 -15 -15 -8 0 -15 -4 -15 -10 0 -5
-11 -12 -25 -16 -14 -3 -25 -12 -25 -20 0 -8 -7 -14 -15 -14 -8 0 -15 -7 -15
-15 0 -8 -7 -15 -15 -15 -8 0 -15 -7 -15 -15 0 -8 -7 -15 -15 -15 -8 0 -15 -7
-15 -15 0 -8 -7 -15 -15 -15 -8 0 -15 -7 -15 -15 0 -8 -7 -15 -15 -15 -8 0
-15 -7 -15 -15 0 -8 -7 -15 -15 -15 -8 0 -15 -4 -15 -10 0 -5 -7 -10 -15 -10
-8 0 -15 -7 -15 -15 0 -8 -7 -15 -15 -15 -8 0 -15 -7 -15 -15 0 -8 -7 -15 -15
-15 -8 0 -15 -7 -15 -15 0 -8 -7 -15 -15 -15 -8 0 -15 -7 -15 -15 0 -8 -7 -15
-15 -15 -8 0 -15 -6 -15 -14 0 -8 -11 -17 -25 -20 -14 -4 -25 -11 -25 -16 0
-6 -7 -10 -15 -10 -8 0 -15 -7 -15 -15 0 -8 -7 -15 -15 -15 -8 0 -15 -7 -15
-15 0 -8 -7 -15 -15 -15 -8 0 -15 -7 -15 -15 0 -8 -7 -15 -15 -15 -8 0 -15 -7
-15 -15 0 -8 -7 -15 -15 -15 -8 0 -15 -7 -15 -15 0 -8 -5 -15 -10 -15 -6 0
-21 -11 -34 -25 -13 -14 -28 -25 -35 -25 -6 0 -11 -7 -11 -15 0 -8 -7 -15 -15
-15 -8 0 -15 -7 -15 -15 0 -8 -7 -15 -15 -15 -8 0 -15 -7 -15 -15 0 -8 -6 -15
-14 -15 -8 0 -28 -13 -44 -30 -17 -16 -35 -30 -41 -30 -6 0 -11 -7 -11 -15 0
-8 -7 -15 -15 -15 -8 0 -15 -7 -15 -15 0 -8 -7 -15 -15 -15 -8 0 -15 -7 -15
-15 0 -8 -7 -15 -15 -15 -8 0 -15 -7 -15 -15 0 -8 -4 -15 -10 -15 -5 0 -25
-16 -45 -35 -36 -37 -46 -75 -20 -75 8 0 15 -7 15 -15 0 -8 7 -15 15 -15 8 0
15 -7 15 -15 0 -8 7 -15 15 -15 8 0 15 -7 15 -15 0 -8 6 -15 14 -15 8 0 35
-20 59 -45 25 -25 50 -45 56 -45 6 0 11 -7 11 -15 0 -8 7 -15 15 -15 8 0 15
-7 15 -15 0 -8 7 -15 15 -15 8 0 15 -7 15 -15 0 -8 7 -15 15 -15 8 0 15 -7 15
-15 0 -8 7 -15 15 -15 8 0 15 -7 15 -15 0 -8 7 -15 15 -15 8 0 15 -7 15 -15 0
-8 7 -15 15 -15 8 0 15 -7 15 -15 0 -8 7 -15 15 -15 8 0 15 -7 15 -15 0 -8 7
-15 15 -15 8 0 15 -7 15 -15 0 -8 5 -15 11 -15 7 0 81 -70 165 -155 84 -85
157 -155 163 -155 6 0 25 -16 44 -35 19 -19 39 -35 46 -35 6 0 11 -4 11 -10 0
-21 20 -9 26 15 3 14 12 25 20 25 8 0 14 7 14 15 0 8 4 15 9 15 5 0 12 14 16
30 4 17 11 30 16 30 5 0 9 7 9 15 0 8 6 15 14 15 8 0 17 11 20 25 4 14 11 25
16 25 6 0 10 7 10 15 0 9 6 18 14 21 8 3 17 16 20 30 4 13 11 24 16 24 6 0 10
7 10 15 0 9 7 18 15 21 8 4 15 12 15 20 0 8 7 14 15 14 9 0 15 9 15 25 0 16 6
25 15 25 10 0 15 10 15 30 0 20 5 30 15 30 8 0 15 7 15 15 0 8 7 15 15 15 10
0 15 10 15 30 0 20 5 30 15 30 8 0 15 7 15 15 0 8 7 15 15 15 8 0 15 7 15 15
0 8 4 15 9 15 5 0 12 12 16 27 3 15 17 37 30 48 12 12 26 32 30 43 3 12 11 22
16 22 5 0 9 7 9 15 0 9 6 18 14 21 8 3 17 16 20 30 4 13 11 24 16 24 6 0 10 7
10 15 0 8 7 15 15 15 8 0 15 7 15 15 0 9 7 18 15 21 8 4 15 17 15 30 0 15 6
24 15 24 8 0 15 7 15 15 0 8 7 15 15 15 9 0 15 9 15 24 0 13 7 26 15 30 8 3
15 12 15 21 0 8 7 15 15 15 8 0 15 7 15 15 0 8 4 15 9 15 5 0 13 9 16 21 4 11
25 38 46 59 21 21 39 41 39 45 0 5 16 23 35 42 19 19 35 40 35 48 0 8 5 15 10
15 6 0 10 7 10 15 0 8 7 15 15 15 8 0 15 7 15 15 0 8 7 15 15 15 8 0 15 7 15
15 0 8 7 15 15 15 8 0 15 7 15 15 0 8 7 15 15 15 8 0 15 7 15 15 0 8 7 15 15
15 8 0 15 7 15 15 0 8 4 15 10 15 5 0 12 11 16 25 3 14 12 25 20 25 8 0 14 7
14 15 0 8 7 15 15 15 8 0 15 7 15 15 0 8 7 15 15 15 8 0 15 7 15 15 0 8 7 15
15 15 8 0 15 7 15 15 0 8 7 15 15 15 8 0 15 7 15 15 0 8 7 15 15 15 8 0 15 7
15 15 0 8 7 15 15 15 8 0 15 6 15 14 0 8 11 17 24 20 14 3 28 15 31 26 3 11
17 23 31 26 13 3 24 12 24 20 0 8 7 14 15 14 8 0 15 7 15 15 0 8 7 15 15 15 8
0 15 7 15 15 0 8 7 15 15 15 8 0 15 7 15 15 0 8 7 15 15 15 8 0 15 7 15 15 0
8 7 15 15 15 8 0 15 7 15 15 0 8 5 15 11 15 7 0 22 11 35 25 13 14 28 25 34
25 5 0 10 6 10 14 0 8 11 17 25 20 14 4 25 11 25 16 0 6 7 10 15 10 8 0 15 7
15 15 0 8 7 15 15 15 9 0 18 7 21 15 4 8 17 15 30 15 15 0 24 6 24 15 0 8 7
15 15 15 8 0 15 7 15 15 0 10 10 15 30 15 20 0 30 5 30 15 0 8 7 15 15 15 8 0
15 7 15 15 0 9 9 15 24 15 13 0 26 7 30 15 3 8 10 15 16 15 6 0 18 7 26 15 9
8 24 15 35 15 10 0 19 6 19 14 0 8 5 16 12 18 7 3 -6 22 -30 45 -23 22 -42 46
-42 52 0 6 -7 11 -15 11 -8 0 -15 7 -15 15 0 8 -7 15 -15 15 -8 0 -15 7 -15
15 0 8 -7 15 -15 15 -8 0 -15 7 -15 15 0 8 -7 15 -15 15 -8 0 -15 7 -15 15 0
8 -7 15 -15 15 -8 0 -15 7 -15 15 0 8 -7 15 -15 15 -8 0 -15 7 -15 15 0 8 -7
15 -15 15 -8 0 -15 7 -15 15 0 8 -7 15 -15 15 -8 0 -15 7 -15 15 0 8 -7 15
-15 15 -8 0 -15 7 -15 15 0 8 -7 15 -15 15 -8 0 -15 7 -15 15 0 8 -5 15 -11
15 -14 0 -69 55 -69 69 0 6 -7 11 -15 11 -8 0 -15 7 -15 15 0 8 -7 15 -15 15
-8 0 -15 7 -15 15 0 8 -7 15 -15 15 -8 0 -15 7 -15 15 0 8 -7 15 -15 15 -8 0
-15 7 -15 15 0 8 -7 15 -15 15 -8 0 -15 7 -15 15 0 8 -7 15 -15 15 -8 0 -15 7
-15 15 0 8 -7 15 -15 15 -8 0 -15 5 -15 10 0 6 -7 10 -15 10 -8 0 -15 -4 -15
-10z" />
        <path
            d="M7592 8718 c-7 -7 -12 -16 -12 -20 0 -10 -80 -88 -91 -88 -4 0 -59
-52 -123 -115 -63 -63 -119 -115 -125 -115 -6 0 -11 -7 -11 -15 0 -8 -7 -15
-15 -15 -8 0 -15 -7 -15 -15 0 -8 -7 -15 -15 -15 -8 0 -15 -7 -15 -15 0 -8 -7
-15 -15 -15 -8 0 -15 -7 -15 -15 0 -8 -7 -15 -15 -15 -8 0 -15 -7 -15 -15 0
-8 -7 -15 -15 -15 -8 0 -15 -7 -15 -15 0 -8 -7 -15 -15 -15 -8 0 -15 -7 -15
-15 0 -8 -7 -15 -15 -15 -8 0 -15 -7 -15 -15 0 -8 -7 -15 -15 -15 -8 0 -15 -5
-15 -11 0 -7 -11 -22 -25 -35 -14 -13 -25 -26 -25 -29 0 -10 23 -30 43 -38 9
-3 17 -11 17 -17 0 -5 11 -10 25 -10 16 0 25 -6 25 -15 0 -8 7 -15 15 -15 9 0
18 -7 21 -15 4 -8 17 -15 30 -15 15 0 24 -6 24 -15 0 -8 7 -15 15 -15 8 0 15
-7 15 -15 0 -9 9 -15 24 -15 13 0 26 -7 30 -15 3 -8 12 -15 21 -15 8 0 15 -7
15 -15 0 -8 7 -15 15 -15 8 0 15 -7 15 -15 0 -9 9 -15 25 -15 16 0 25 -6 25
-15 0 -8 5 -15 10 -15 6 0 27 -18 49 -40 21 -22 44 -40 50 -40 6 0 11 -7 11
-15 0 -8 5 -15 11 -15 7 0 27 -16 46 -35 19 -19 40 -35 48 -35 8 0 15 -7 15
-15 0 -8 7 -15 15 -15 8 0 15 -4 15 -10 0 -5 7 -10 15 -10 8 0 15 -7 15 -15 0
-8 7 -15 15 -15 8 0 15 -7 15 -15 0 -8 7 -15 15 -15 8 0 15 -7 15 -15 0 -8 7
-15 15 -15 8 0 15 -5 15 -11 0 -6 25 -36 55 -65 30 -30 55 -59 55 -64 0 -6 7
-10 15 -10 8 0 15 -7 15 -15 0 -8 7 -15 15 -15 8 0 15 -7 15 -15 0 -8 7 -15
15 -15 8 0 15 -7 15 -15 0 -8 6 -15 14 -15 8 0 17 -11 20 -25 4 -14 11 -25 16
-25 6 0 10 -7 10 -15 0 -8 7 -15 15 -15 8 0 15 -7 15 -15 0 -8 7 -15 15 -15 8
0 15 -7 15 -15 0 -8 7 -15 15 -15 8 0 15 -7 15 -15 0 -8 7 -15 15 -15 8 0 15
-7 15 -15 0 -8 7 -15 15 -15 8 0 15 -7 15 -15 0 -8 5 -15 10 -15 6 0 10 -7 10
-15 0 -8 16 -29 35 -48 19 -19 35 -38 35 -42 0 -4 11 -18 24 -30 13 -12 27
-32 31 -43 3 -12 11 -22 16 -22 5 0 9 -7 9 -15 0 -8 7 -15 15 -15 8 0 15 -7
15 -15 0 -8 7 -15 15 -15 8 0 15 -7 15 -15 0 -8 7 -15 15 -15 10 0 15 -10 15
-30 0 -20 5 -30 15 -30 8 0 15 -7 15 -15 0 -8 7 -15 15 -15 8 0 15 -5 15 -11
0 -6 7 -17 15 -25 8 -9 15 -24 15 -35 0 -10 7 -19 15 -19 8 0 15 -7 15 -15 0
-8 7 -15 15 -15 9 0 15 -9 15 -25 0 -16 6 -25 15 -25 8 0 15 -6 15 -14 0 -8 7
-16 15 -20 8 -3 15 -12 15 -21 0 -8 4 -15 9 -15 5 0 13 -10 16 -22 4 -11 18
-31 31 -43 13 -12 24 -27 24 -34 0 -6 6 -11 14 -11 8 0 17 -13 21 -30 4 -16
11 -30 16 -30 5 0 9 -7 9 -15 0 -8 6 -15 14 -15 8 0 17 -11 20 -25 4 -14 11
-25 16 -25 6 0 10 -9 10 -20 0 -11 7 -20 15 -20 9 0 15 -9 15 -25 0 -16 6 -25
15 -25 8 0 15 -6 15 -14 0 -8 7 -16 15 -20 8 -3 15 -17 15 -31 0 -16 6 -25 15
-25 8 0 15 -6 15 -14 0 -8 7 -16 15 -20 8 -3 15 -12 15 -21 0 -8 4 -15 10 -15
5 0 12 -11 16 -25 3 -14 10 -25 15 -25 5 0 9 -7 9 -15 0 -8 9 -23 20 -32 11
-10 20 -23 20 -30 0 -7 4 -13 9 -13 5 0 12 -11 15 -24 7 -30 45 -45 60 -24 6
8 21 18 34 22 12 4 22 12 22 17 0 5 7 9 15 9 8 0 15 7 15 15 0 8 7 15 15 15 8
0 15 7 15 15 0 8 7 15 15 15 8 0 15 7 15 15 0 8 7 15 15 15 8 0 15 7 15 15 0
8 7 15 15 15 8 0 15 7 15 15 0 8 7 15 15 15 8 0 15 7 15 15 0 8 7 15 15 15 8
0 15 7 15 15 0 8 5 15 11 15 6 0 38 27 71 60 33 33 66 60 74 60 8 0 14 7 14
15 0 8 5 15 10 15 6 0 21 11 34 25 13 14 28 25 35 25 6 0 11 7 11 15 0 8 7 15
15 15 8 0 15 7 15 15 0 8 7 15 15 15 8 0 15 7 15 15 0 8 7 15 15 15 8 0 15 7
15 15 0 8 7 15 15 15 8 0 15 7 15 15 0 8 7 15 15 15 8 0 15 7 15 15 0 8 7 15
15 15 8 0 15 7 15 15 0 8 7 15 15 15 8 0 15 7 15 15 0 8 5 15 11 15 6 0 38 27
71 60 33 33 66 60 74 60 18 0 18 47 0 66 -8 8 -19 14 -25 14 -6 0 -11 7 -11
15 0 8 -7 15 -15 15 -8 0 -15 7 -15 15 0 8 -6 15 -14 15 -8 0 -16 7 -20 15 -3
8 -12 15 -21 15 -8 0 -15 7 -15 15 0 8 -7 15 -15 15 -8 0 -15 7 -15 15 0 8 -7
15 -15 15 -8 0 -15 7 -15 15 0 8 -5 15 -11 15 -6 0 -24 14 -41 30 -16 17 -36
30 -44 30 -8 0 -14 7 -14 15 0 8 -7 15 -15 15 -8 0 -15 7 -15 15 0 8 -7 15
-15 15 -8 0 -15 7 -15 15 0 8 -5 15 -11 15 -7 0 -22 11 -35 25 -13 14 -28 25
-34 25 -5 0 -10 7 -10 15 0 8 -7 15 -15 15 -8 0 -15 7 -15 15 0 8 -7 15 -15
15 -8 0 -15 7 -15 15 0 8 -7 15 -15 15 -8 0 -15 7 -15 15 0 8 -7 15 -15 15 -8
0 -15 7 -15 15 0 8 -7 15 -15 15 -8 0 -15 4 -15 10 0 5 -11 12 -25 16 -14 3
-25 12 -25 20 0 8 -7 14 -15 14 -8 0 -15 7 -15 15 0 8 -7 15 -15 15 -8 0 -15
7 -15 15 0 8 -7 15 -15 15 -8 0 -15 7 -15 15 0 8 -7 15 -15 15 -8 0 -15 7 -15
15 0 8 -7 15 -15 15 -8 0 -15 5 -15 10 0 6 -7 10 -15 10 -8 0 -15 7 -15 15 0
8 -7 15 -15 15 -8 0 -15 7 -15 15 0 8 -7 15 -15 15 -8 0 -15 7 -15 15 0 8 -7
15 -15 15 -8 0 -15 7 -15 15 0 8 -7 15 -15 15 -8 0 -15 7 -15 15 0 9 -9 15
-25 15 -16 0 -25 6 -25 15 0 8 -7 15 -15 15 -8 0 -15 7 -15 15 0 8 -7 15 -15
15 -8 0 -15 7 -15 15 0 8 -7 15 -15 15 -8 0 -15 7 -15 15 0 8 -7 15 -15 15 -8
0 -15 7 -15 15 0 8 -7 15 -15 15 -8 0 -15 7 -15 15 0 8 -7 15 -15 15 -8 0 -15
7 -15 15 0 8 -7 15 -15 15 -8 0 -15 5 -15 10 0 6 -7 10 -15 10 -8 0 -15 7 -15
15 0 8 -7 15 -15 15 -8 0 -15 7 -15 15 0 8 -7 15 -15 15 -8 0 -15 7 -15 15 0
8 -7 15 -15 15 -8 0 -15 7 -15 15 0 8 -7 15 -15 15 -8 0 -15 6 -15 14 0 8 -11
17 -25 20 -14 4 -25 11 -25 16 0 6 -7 10 -15 10 -8 0 -15 7 -15 15 0 8 -7 15
-15 15 -8 0 -15 7 -15 15 0 8 -7 15 -15 15 -8 0 -15 7 -15 15 0 8 -7 15 -15
15 -8 0 -15 7 -15 15 0 8 -7 15 -15 15 -8 0 -15 7 -15 15 0 8 -7 15 -15 15 -8
0 -15 7 -15 15 0 8 -7 15 -15 15 -8 0 -15 7 -15 15 0 8 -5 15 -11 15 -6 0 -29
18 -50 40 -22 22 -43 40 -49 40 -5 0 -10 7 -10 15 0 8 -7 15 -15 15 -8 0 -15
7 -15 15 0 8 -7 15 -15 15 -8 0 -15 7 -15 15 0 8 -7 15 -15 15 -8 0 -15 6 -15
14 0 8 -11 17 -25 20 -14 4 -25 11 -25 16 0 6 -7 10 -15 10 -8 0 -15 7 -15 15
0 8 -7 15 -15 15 -8 0 -15 7 -15 15 0 8 -7 15 -15 15 -8 0 -15 7 -15 15 0 8
-7 15 -15 15 -8 0 -15 7 -15 15 0 8 -7 15 -15 15 -8 0 -15 7 -15 15 0 8 -7 15
-15 15 -8 0 -15 7 -15 15 0 8 -5 15 -11 15 -6 0 -29 18 -50 40 -22 22 -43 40
-49 40 -5 0 -10 7 -10 15 0 8 -7 15 -15 15 -8 0 -15 7 -15 15 0 8 -7 15 -15
15 -8 0 -15 7 -15 15 0 8 -7 15 -15 15 -8 0 -15 6 -15 14 0 8 -11 17 -25 20
-14 4 -25 11 -25 16 0 6 -7 10 -15 10 -8 0 -15 7 -15 15 0 19 -60 21 -78 3z" />
        <path
            d="M4728 7903 c-10 -2 -18 -9 -18 -14 0 -5 -51 -9 -114 -9 -92 0 -115
-3 -120 -15 -4 -11 -22 -15 -75 -15 -52 0 -70 -4 -75 -15 -4 -11 -22 -15 -70
-15 -40 0 -66 -4 -68 -12 -2 -6 -31 -13 -63 -16 -33 -3 -65 -11 -73 -18 -7 -8
-33 -14 -57 -14 -24 0 -45 -5 -47 -10 -2 -6 -21 -13 -43 -17 -22 -3 -43 -10
-46 -15 -3 -5 -25 -12 -48 -15 -22 -3 -41 -9 -41 -14 0 -5 -18 -12 -40 -15
-22 -4 -40 -10 -40 -14 0 -4 -16 -11 -35 -14 -19 -4 -35 -11 -35 -15 0 -5 -18
-11 -40 -15 -22 -3 -40 -10 -40 -15 0 -5 -13 -12 -30 -16 -16 -4 -30 -11 -30
-16 0 -5 -13 -9 -30 -9 -20 0 -30 -5 -30 -15 0 -10 -10 -15 -30 -15 -27 0 -30
-3 -30 -30 0 -20 5 -30 15 -30 9 0 15 -9 15 -25 0 -14 7 -28 15 -31 8 -4 15
-12 15 -20 0 -8 7 -14 15 -14 8 0 15 -7 15 -15 0 -8 7 -15 15 -15 8 0 15 -7
15 -15 0 -8 7 -15 15 -15 8 0 15 -7 15 -15 0 -8 4 -15 10 -15 5 0 12 -11 16
-25 3 -14 12 -25 20 -25 8 0 14 -5 14 -10 0 -6 11 -21 25 -34 14 -13 25 -28
25 -35 0 -6 7 -11 15 -11 8 0 15 -6 15 -13 0 -7 9 -20 20 -30 11 -9 20 -24 20
-32 0 -21 105 -22 114 0 3 10 19 15 46 15 29 0 40 4 40 15 0 11 11 15 39 15
25 0 41 5 45 15 3 10 19 15 45 15 22 0 41 5 43 11 2 6 25 13 51 16 26 3 47 9
47 14 0 4 25 11 55 14 30 4 55 11 55 15 0 4 27 11 60 15 33 4 60 10 60 15 0 4
38 11 85 15 47 4 85 10 85 14 0 5 53 11 118 15 64 3 119 11 120 16 5 14 549
14 554 0 2 -5 63 -13 136 -16 72 -4 132 -10 132 -15 0 -4 38 -10 85 -14 47 -4
85 -11 85 -15 0 -5 27 -11 60 -15 33 -4 60 -11 60 -15 0 -4 25 -11 55 -15 30
-3 55 -10 55 -14 0 -5 21 -11 47 -14 26 -3 49 -10 51 -16 2 -6 21 -11 43 -11
26 0 42 -5 45 -15 4 -10 20 -15 45 -15 28 0 39 -4 39 -15 0 -11 12 -15 45 -15
33 0 45 -4 45 -15 0 -11 11 -15 40 -15 41 0 80 23 80 47 0 7 7 13 15 13 8 0
15 7 15 15 0 8 5 15 10 15 6 0 10 7 10 15 0 8 7 15 15 15 8 0 15 6 15 14 0 8
14 28 30 44 17 17 30 35 30 41 0 6 7 11 15 11 8 0 15 7 15 15 0 9 6 18 14 21
8 3 17 16 20 30 4 13 11 24 16 24 6 0 10 7 10 15 0 8 7 15 15 15 8 0 15 7 15
15 0 8 7 15 15 15 8 0 15 7 15 15 0 8 7 15 15 15 10 0 15 10 15 30 0 27 -3 30
-30 30 -20 0 -30 5 -30 15 0 9 -10 15 -26 15 -14 0 -32 7 -40 15 -9 8 -24 15
-35 15 -10 0 -19 4 -19 10 0 5 -18 13 -40 16 -22 4 -40 10 -40 15 0 4 -16 11
-35 15 -19 3 -35 10 -35 14 0 4 -18 10 -40 14 -22 3 -40 10 -40 15 0 5 -19 11
-41 14 -23 3 -45 10 -48 15 -3 5 -24 12 -46 15 -22 4 -41 11 -43 17 -2 5 -23
10 -47 10 -24 0 -50 6 -57 14 -8 7 -38 15 -68 18 -30 3 -56 11 -58 17 -2 6
-28 11 -63 11 -46 0 -59 3 -59 15 0 12 -16 15 -85 15 -69 0 -85 3 -85 15 0 12
-20 15 -119 15 -87 0 -120 3 -123 13 -4 9 -86 12 -364 14 -197 0 -367 -1 -376
-4z" />
        <path
            d="M2750 7310 c-36 -38 -71 -69 -77 -70 -7 0 -13 -7 -13 -15 0 -8 -7
-15 -15 -15 -8 0 -15 -7 -15 -15 0 -8 -7 -15 -15 -15 -8 0 -15 -7 -15 -15 0
-8 -7 -15 -15 -15 -8 0 -15 -7 -15 -15 0 -8 -7 -15 -15 -15 -8 0 -15 -7 -15
-15 0 -8 -7 -15 -15 -15 -8 0 -15 -7 -15 -15 0 -8 -7 -15 -15 -15 -8 0 -15 -7
-15 -15 0 -8 -7 -15 -15 -15 -8 0 -15 -7 -15 -15 0 -8 -7 -15 -15 -15 -8 0
-15 -7 -15 -15 0 -8 -5 -15 -11 -15 -14 0 -189 -175 -189 -189 0 -6 -7 -11
-15 -11 -8 0 -15 -7 -15 -15 0 -8 -7 -15 -15 -15 -10 0 -15 -10 -15 -30 0 -20
5 -30 15 -30 8 0 15 -7 15 -15 0 -8 7 -15 15 -15 8 0 15 -7 15 -15 0 -8 7 -15
15 -15 8 0 15 -7 15 -15 0 -8 7 -15 15 -15 8 0 15 -7 15 -15 0 -8 7 -15 15
-15 8 0 15 -7 15 -15 0 -8 7 -15 15 -15 8 0 15 -5 15 -11 0 -14 85 -99 99 -99
6 0 11 -7 11 -15 0 -8 7 -15 15 -15 8 0 15 -7 15 -15 0 -8 7 -15 15 -15 8 0
15 -7 15 -15 0 -8 7 -15 15 -15 8 0 15 -7 15 -15 0 -8 7 -15 15 -15 8 0 15 -7
15 -15 0 -8 7 -15 15 -15 8 0 15 -7 15 -15 0 -8 7 -15 15 -15 8 0 15 -7 15
-15 0 -8 7 -15 15 -15 8 0 15 -7 15 -15 0 -8 7 -15 15 -15 8 0 15 -7 15 -15 0
-8 5 -15 11 -15 14 0 279 -265 279 -279 0 -6 7 -11 15 -11 8 0 15 -7 15 -15 0
-8 7 -15 15 -15 8 0 15 -7 15 -15 0 -8 7 -15 15 -15 8 0 15 -4 15 -10 0 -5 11
-12 25 -16 14 -3 25 -12 25 -19 0 -7 47 -61 105 -118 58 -58 105 -110 105
-115 0 -5 10 -12 23 -16 33 -9 37 -8 37 9 0 8 7 15 15 15 8 0 15 7 15 15 0 8
7 15 15 15 8 0 15 7 15 15 0 8 7 15 15 15 8 0 15 4 15 10 0 5 25 34 55 64 30
29 55 59 55 65 0 6 7 11 15 11 8 0 15 7 15 15 0 8 7 15 15 15 8 0 15 7 15 15
0 8 7 15 15 15 8 0 15 7 15 15 0 8 7 15 15 15 8 0 15 7 15 15 0 8 7 15 15 15
8 0 15 7 15 15 0 8 7 15 15 15 8 0 15 7 15 15 0 8 7 15 15 15 8 0 15 7 15 15
0 8 7 15 15 15 8 0 15 7 15 15 0 8 7 15 15 15 8 0 15 7 15 15 0 8 7 15 15 15
8 0 15 7 15 15 0 8 5 15 11 15 7 0 22 11 35 25 13 14 28 25 34 25 5 0 10 7 10
15 0 8 7 15 15 15 8 0 15 6 15 14 0 8 11 17 24 20 13 3 27 13 30 22 9 23 -4
64 -20 64 -8 0 -14 7 -14 15 0 8 -7 15 -15 15 -8 0 -15 7 -15 15 0 8 -7 15
-15 15 -8 0 -15 5 -15 11 0 14 -25 39 -39 39 -6 0 -11 7 -11 15 0 8 -7 15 -15
15 -8 0 -15 7 -15 15 0 8 -7 15 -15 15 -8 0 -15 7 -15 15 0 8 -7 15 -15 15 -8
0 -15 7 -15 15 0 8 -7 15 -15 15 -8 0 -15 7 -15 15 0 8 -7 15 -15 15 -8 0 -15
7 -15 15 0 8 -7 15 -15 15 -8 0 -15 7 -15 15 0 8 -6 15 -14 15 -8 0 -28 14
-44 30 -17 17 -35 30 -41 30 -6 0 -11 7 -11 15 0 8 -7 15 -15 15 -8 0 -15 7
-15 15 0 8 -7 15 -15 15 -8 0 -15 7 -15 15 0 8 -7 15 -15 15 -8 0 -15 7 -15
15 0 8 -7 15 -15 15 -8 0 -15 7 -15 15 0 8 -7 15 -15 15 -8 0 -15 7 -15 15 0
8 -7 15 -15 15 -8 0 -15 7 -15 15 0 8 -7 15 -15 15 -8 0 -15 7 -15 15 0 8 -5
15 -11 15 -6 0 -29 18 -50 40 -22 22 -43 40 -49 40 -5 0 -10 7 -10 15 0 8 -7
15 -15 15 -8 0 -15 7 -15 15 0 8 -7 15 -15 15 -8 0 -15 7 -15 15 0 8 -7 15
-15 15 -8 0 -15 7 -15 15 0 8 -7 15 -15 15 -8 0 -15 7 -15 15 0 8 -7 15 -15
15 -8 0 -15 5 -15 11 0 14 -55 69 -69 69 -6 0 -11 7 -11 15 0 8 -7 15 -15 15
-8 0 -15 7 -15 15 0 8 -7 15 -15 15 -8 0 -15 7 -15 15 0 8 -7 15 -15 15 -8 0
-15 7 -15 15 0 8 -7 15 -15 15 -8 0 -15 7 -15 15 0 8 -7 15 -15 15 -8 0 -15 6
-15 14 0 8 -11 17 -25 20 -14 4 -25 11 -25 16 0 6 -12 10 -27 9 -21 -1 -45
-19 -93 -69z" />
        <path
            d="M7290 7365 c0 -8 -7 -15 -15 -15 -8 0 -15 -7 -15 -15 0 -8 -7 -15
-15 -15 -8 0 -15 -7 -15 -15 0 -8 -7 -15 -15 -15 -8 0 -15 -7 -15 -15 0 -8 -7
-15 -15 -15 -8 0 -15 -7 -15 -15 0 -8 -5 -15 -11 -15 -6 0 -36 -25 -65 -55
-30 -30 -59 -55 -64 -55 -6 0 -10 -7 -10 -15 0 -8 -7 -15 -15 -15 -8 0 -15 -5
-15 -11 0 -7 -11 -22 -25 -35 -14 -13 -25 -28 -25 -34 0 -5 -6 -10 -14 -10 -8
0 -16 -7 -20 -15 -3 -8 -12 -15 -21 -15 -8 0 -15 -5 -15 -11 0 -6 -6 -17 -14
-25 -8 -8 -19 -14 -25 -14 -6 0 -11 -7 -11 -15 0 -8 -7 -15 -15 -15 -8 0 -15
-7 -15 -15 0 -8 -7 -15 -15 -15 -8 0 -15 -7 -15 -15 0 -8 -7 -15 -15 -15 -8 0
-15 -7 -15 -15 0 -8 -7 -15 -15 -15 -8 0 -15 -7 -15 -15 0 -8 -7 -15 -15 -15
-8 0 -15 -7 -15 -15 0 -8 -7 -15 -15 -15 -8 0 -15 -7 -15 -15 0 -8 -7 -15 -15
-15 -8 0 -15 -6 -15 -14 0 -8 -11 -17 -25 -20 -15 -4 -27 -16 -31 -31 -4 -18
-13 -25 -30 -25 -15 0 -24 -6 -24 -15 0 -8 -7 -15 -15 -15 -8 0 -15 -7 -15
-15 0 -8 -7 -15 -15 -15 -8 0 -15 -7 -15 -15 0 -8 -7 -15 -15 -15 -8 0 -15 -7
-15 -15 0 -8 -7 -15 -15 -15 -8 0 -15 -7 -15 -15 0 -8 -7 -15 -15 -15 -8 0
-15 -7 -15 -15 0 -8 -7 -15 -15 -15 -8 0 -15 -7 -15 -15 0 -8 -7 -15 -15 -15
-8 0 -15 -7 -15 -15 0 -8 -7 -15 -15 -15 -8 0 -15 -7 -15 -15 0 -8 -5 -15 -11
-15 -6 0 -24 -13 -40 -29 -16 -16 -29 -34 -29 -40 0 -6 -7 -11 -15 -11 -8 0
-15 -7 -15 -15 0 -8 -6 -15 -14 -15 -7 0 -16 -10 -20 -22 -8 -32 -7 -38 4 -38
5 0 34 -25 64 -55 29 -30 59 -55 65 -55 6 0 11 -7 11 -15 0 -8 7 -15 15 -15 8
0 15 -7 15 -15 0 -8 7 -15 15 -15 8 0 15 -7 15 -15 0 -8 7 -15 15 -15 8 0 15
-7 15 -15 0 -8 7 -15 15 -15 8 0 15 -7 15 -15 0 -8 7 -15 15 -15 8 0 15 -7 15
-15 0 -8 7 -15 15 -15 8 0 15 -7 15 -15 0 -8 7 -15 15 -15 8 0 15 -7 15 -15 0
-8 7 -15 15 -15 8 0 15 -7 15 -15 0 -9 9 -15 25 -15 15 0 25 -6 25 -14 0 -8
27 -41 60 -74 33 -33 60 -65 60 -71 0 -6 7 -11 15 -11 8 0 15 -7 15 -15 0 -8
7 -15 15 -15 8 0 15 -7 15 -15 0 -8 7 -15 15 -15 8 0 15 -7 15 -15 0 -8 7 -15
15 -15 8 0 15 -7 15 -15 0 -27 21 -16 76 40 30 30 59 55 64 55 6 0 10 7 10 15
0 8 7 15 15 15 8 0 15 7 15 15 0 8 7 15 15 15 8 0 15 7 15 15 0 8 7 15 15 15
8 0 15 7 15 15 0 8 7 15 15 15 8 0 15 7 15 15 0 8 7 15 15 15 8 0 15 7 15 15
0 8 5 15 11 15 14 0 69 55 69 69 0 6 7 11 15 11 8 0 15 7 15 15 0 8 7 15 15
15 8 0 15 7 15 15 0 8 7 15 15 15 8 0 15 7 15 15 0 8 7 15 15 15 8 0 15 7 15
15 0 8 7 15 15 15 8 0 15 7 15 15 0 8 7 15 15 15 8 0 15 7 15 15 0 8 7 15 15
15 8 0 15 7 15 15 0 8 7 15 15 15 8 0 15 7 15 15 0 8 7 15 15 15 8 0 15 7 15
15 0 8 7 15 15 15 8 0 15 7 15 15 0 8 7 15 15 15 8 0 15 7 15 15 0 8 7 15 15
15 8 0 15 4 15 10 0 5 11 12 25 16 14 3 25 12 25 20 0 8 7 14 15 14 8 0 15 5
15 11 0 14 205 219 219 219 6 0 11 7 11 15 0 8 7 15 15 15 8 0 15 7 15 15 0 8
7 15 15 15 8 0 15 7 15 15 0 8 7 15 15 15 8 0 15 7 15 15 0 8 7 15 15 15 8 0
15 7 15 15 0 8 7 15 15 15 8 0 15 7 15 15 0 8 7 15 15 15 9 0 15 9 15 25 0 16
-6 25 -15 25 -8 0 -15 7 -15 15 0 8 -7 15 -15 15 -8 0 -15 7 -15 15 0 8 -7 15
-15 15 -8 0 -15 4 -15 10 0 5 -45 54 -100 109 -55 54 -100 104 -100 110 0 6
-7 11 -15 11 -8 0 -15 7 -15 15 0 8 -7 15 -15 15 -8 0 -15 7 -15 15 0 8 -7 15
-15 15 -8 0 -15 7 -15 15 0 8 -5 15 -10 15 -6 0 -21 11 -34 25 -13 14 -28 25
-35 25 -6 0 -11 7 -11 15 0 8 -7 15 -15 15 -8 0 -15 7 -15 15 0 8 -7 15 -15
15 -8 0 -15 7 -15 15 0 8 -7 15 -15 15 -8 0 -15 7 -15 15 0 8 -7 15 -15 15 -8
0 -15 7 -15 15 0 8 -7 15 -15 15 -8 0 -15 7 -15 15 0 8 -7 15 -15 15 -8 0 -15
7 -15 15 0 11 -11 15 -40 15 -29 0 -40 -4 -40 -15z" />
        <path
            d="M1990 6225 c0 -8 -6 -15 -14 -15 -8 0 -17 -12 -21 -27 -3 -15 -17
-37 -30 -48 -12 -12 -26 -32 -30 -43 -3 -12 -11 -22 -16 -22 -5 0 -9 -7 -9
-15 0 -8 -7 -15 -15 -15 -8 0 -15 -9 -15 -20 0 -11 -7 -20 -15 -20 -9 0 -15
-9 -15 -25 0 -16 -6 -25 -15 -25 -10 0 -15 -10 -15 -30 0 -20 -5 -30 -15 -30
-8 0 -15 -9 -15 -20 0 -11 -7 -20 -15 -20 -9 0 -15 -9 -15 -25 0 -16 -6 -25
-15 -25 -10 0 -15 -10 -15 -30 0 -20 -5 -30 -15 -30 -10 0 -15 -10 -15 -30 0
-20 -5 -30 -15 -30 -10 0 -15 -10 -15 -30 0 -16 -4 -30 -10 -30 -5 0 -13 -12
-16 -27 -4 -15 -13 -34 -21 -41 -7 -7 -13 -22 -13 -33 0 -10 -4 -19 -9 -19 -5
0 -12 -13 -16 -30 -4 -16 -10 -30 -15 -30 -4 0 -10 -18 -14 -40 -3 -22 -11
-40 -16 -40 -6 0 -10 -13 -10 -29 0 -16 -7 -36 -15 -45 -8 -8 -15 -26 -15 -41
0 -14 -7 -28 -15 -31 -10 -4 -15 -20 -15 -45 0 -26 -5 -42 -15 -45 -10 -4 -15
-20 -15 -45 0 -28 -4 -39 -15 -39 -11 0 -15 -12 -15 -44 0 -26 -6 -51 -15 -60
-9 -9 -15 -33 -15 -60 0 -34 -4 -46 -15 -46 -12 0 -15 -13 -15 -56 0 -36 -5
-61 -15 -70 -10 -10 -15 -35 -15 -75 0 -46 -3 -59 -15 -59 -12 0 -15 -15 -15
-74 0 -49 -4 -76 -12 -78 -8 -3 -13 -45 -16 -129 -3 -76 -9 -127 -16 -131 -16
-10 -16 -636 0 -646 7 -4 13 -56 16 -131 3 -68 10 -126 15 -130 6 -3 12 -42
15 -85 2 -51 8 -81 16 -84 8 -2 12 -25 12 -63 0 -44 4 -61 15 -65 11 -5 15
-21 15 -60 0 -41 4 -54 15 -54 12 0 15 -13 15 -60 0 -47 3 -60 15 -60 11 0 15
-11 15 -41 0 -23 7 -47 15 -55 8 -9 15 -29 15 -45 0 -17 7 -37 15 -45 8 -9 15
-28 15 -44 0 -16 5 -30 10 -32 6 -2 13 -21 17 -43 3 -22 12 -46 20 -53 7 -7
13 -22 13 -33 0 -10 4 -19 10 -19 5 0 13 -18 16 -40 4 -22 10 -40 14 -40 5 0
11 -13 15 -30 4 -17 11 -30 16 -30 5 0 9 -13 9 -30 0 -20 5 -30 15 -30 10 0
15 -10 15 -30 0 -20 5 -30 15 -30 10 0 15 -10 15 -30 0 -19 5 -30 14 -30 8 0
17 -11 20 -25 6 -24 26 -36 26 -15 0 6 6 10 13 10 7 0 20 8 29 17 26 28 46 43
58 43 5 0 10 7 10 15 0 8 6 15 13 15 6 1 23 14 37 30 13 17 30 30 37 30 7 0
13 7 13 15 0 8 7 15 15 15 8 0 15 7 15 15 0 8 7 15 15 15 8 0 15 7 15 15 0 8
5 15 11 15 6 0 24 14 41 30 16 17 36 30 44 30 8 0 14 7 14 15 0 8 5 15 10 15
17 0 50 39 50 60 0 11 -7 20 -15 20 -10 0 -15 10 -15 30 0 20 -5 30 -15 30
-10 0 -15 10 -15 30 0 17 -4 30 -10 30 -5 0 -13 18 -16 40 -4 22 -10 40 -15
40 -4 0 -11 16 -15 35 -3 19 -10 35 -14 35 -4 0 -11 20 -14 45 -4 25 -11 45
-16 45 -5 0 -12 25 -15 55 -4 30 -11 55 -15 55 -4 0 -10 19 -13 41 -3 23 -10
45 -15 48 -5 3 -12 31 -14 61 -3 30 -11 56 -17 58 -6 2 -11 27 -11 58 0 39 -4
56 -15 60 -12 5 -15 25 -15 89 0 59 -4 88 -14 98 -11 10 -15 50 -18 157 -2
103 -6 145 -15 148 -18 5 -19 358 -1 364 9 3 14 47 16 154 3 97 8 152 16 156
6 4 12 43 15 93 2 64 6 85 17 85 10 0 14 15 14 59 0 35 5 61 11 63 6 2 14 27
17 56 2 29 8 52 13 52 4 0 11 20 15 45 3 25 10 45 14 45 4 0 10 19 13 41 3 23
10 45 15 48 5 3 12 24 15 45 4 22 10 42 15 45 5 3 12 24 15 46 4 22 11 41 17
43 5 2 10 15 10 28 0 14 7 27 15 30 8 4 15 18 15 34 0 16 7 35 15 44 8 8 15
26 15 40 0 16 6 26 15 26 10 0 15 10 15 30 0 20 5 30 15 30 10 0 15 10 15 30
0 20 5 30 15 30 9 0 15 9 15 24 0 13 7 26 15 30 8 3 15 12 15 21 0 8 4 15 10
15 5 0 13 12 16 27 4 15 13 34 21 41 7 7 13 19 13 27 0 7 7 15 15 19 8 3 15
17 15 31 0 16 6 25 15 25 8 0 15 7 15 15 0 8 4 15 9 15 5 0 12 14 16 30 4 17
13 30 21 30 8 0 14 7 14 15 0 8 4 15 9 15 12 0 22 45 15 64 -3 9 -17 19 -30
22 -13 3 -24 12 -24 20 0 8 -5 14 -10 14 -6 0 -27 18 -49 40 -21 22 -44 40
-50 40 -6 0 -11 7 -11 15 0 8 -7 15 -15 15 -8 0 -15 7 -15 15 0 8 -7 15 -15
15 -8 0 -15 7 -15 15 0 8 -7 15 -15 15 -8 0 -15 7 -15 15 0 8 -7 15 -15 15 -8
0 -15 7 -15 15 0 8 -7 15 -15 15 -8 0 -15 7 -15 15 0 8 -7 15 -15 15 -8 0 -15
7 -15 15 0 9 -9 15 -25 15 -16 0 -25 6 -25 15 0 8 -7 15 -15 15 -8 0 -15 -7
-15 -15z" />
        <path
            d="M8140 6225 c0 -8 -7 -15 -15 -15 -8 0 -15 -7 -15 -15 0 -8 -7 -15
-15 -15 -8 0 -15 -7 -15 -15 0 -8 -7 -15 -15 -15 -8 0 -15 -7 -15 -15 0 -8 -5
-15 -11 -15 -7 0 -22 -11 -35 -25 -13 -14 -28 -25 -34 -25 -5 0 -10 -7 -10
-15 0 -8 -6 -15 -14 -15 -8 0 -35 -20 -59 -45 -25 -25 -50 -45 -56 -45 -6 0
-11 -7 -11 -15 0 -8 -6 -15 -12 -15 -7 0 -24 -12 -37 -25 -29 -31 -23 -76 14
-111 13 -12 27 -34 31 -48 3 -14 10 -26 14 -26 4 0 11 -11 14 -25 4 -14 11
-25 16 -25 6 0 10 -7 10 -15 0 -9 7 -18 15 -21 8 -4 15 -17 15 -30 0 -15 6
-24 15 -24 10 0 15 -10 15 -30 0 -20 5 -30 15 -30 8 0 15 -9 15 -19 0 -11 7
-26 15 -35 8 -8 15 -22 15 -30 0 -9 4 -16 9 -16 5 0 13 -10 17 -22 3 -12 13
-28 20 -36 8 -7 14 -26 14 -42 0 -16 7 -30 15 -34 8 -3 15 -16 15 -30 0 -13 7
-26 15 -30 8 -3 15 -17 15 -31 0 -15 7 -33 15 -41 8 -9 15 -28 15 -44 0 -16 5
-30 11 -32 5 -2 13 -22 16 -46 3 -23 9 -42 14 -42 4 0 10 -13 14 -30 4 -16 10
-30 15 -30 4 0 11 -25 15 -55 3 -30 10 -55 15 -55 4 0 11 -27 15 -60 4 -33 10
-60 15 -60 4 0 10 -27 14 -60 4 -33 11 -60 15 -60 5 0 11 -32 13 -71 2 -38 9
-73 15 -77 6 -4 12 -54 15 -116 3 -71 9 -111 16 -114 18 -6 17 -679 0 -684 -9
-3 -14 -38 -16 -114 -3 -67 -8 -112 -15 -116 -6 -4 -13 -42 -15 -85 -3 -43 -9
-81 -15 -84 -5 -4 -12 -31 -15 -60 -3 -30 -9 -57 -15 -60 -5 -4 -12 -30 -15
-58 -2 -28 -8 -51 -13 -51 -5 0 -11 -22 -15 -50 -4 -27 -10 -50 -14 -50 -4 0
-11 -20 -14 -45 -4 -25 -11 -45 -15 -45 -5 0 -11 -18 -15 -40 -3 -22 -11 -40
-16 -40 -6 0 -10 -13 -10 -30 0 -20 -5 -30 -15 -30 -10 0 -15 -10 -15 -34 0
-19 -7 -41 -15 -50 -8 -8 -15 -26 -15 -40 0 -13 -7 -31 -15 -40 -17 -17 -20
-76 -4 -76 7 0 22 -11 35 -25 13 -14 28 -25 34 -25 5 0 10 -6 10 -14 0 -8 11
-17 25 -20 14 -4 25 -11 25 -16 0 -6 7 -10 15 -10 8 0 15 -7 15 -15 0 -8 7
-15 15 -15 8 0 15 -7 15 -15 0 -8 7 -15 15 -15 9 0 18 -7 21 -15 4 -8 12 -15
20 -15 8 0 14 -6 14 -14 0 -8 11 -17 25 -20 14 -4 25 -11 25 -16 0 -6 7 -10
15 -10 8 0 15 -7 15 -15 0 -8 7 -15 15 -15 8 0 15 -7 15 -15 0 -8 7 -15 15
-15 8 0 15 -7 15 -15 0 -10 10 -15 30 -15 27 0 30 3 30 30 0 20 5 30 15 30 9
0 15 9 15 24 0 13 7 26 15 30 8 3 15 17 15 31 0 14 4 25 9 25 5 0 12 13 16 30
4 17 11 30 15 30 5 0 12 16 16 35 3 19 10 35 14 35 4 0 10 18 14 40 3 22 11
40 16 40 6 0 10 9 10 19 0 11 6 26 13 33 8 7 17 31 20 53 4 22 11 41 17 43 5
2 10 21 10 43 0 26 5 42 15 45 10 4 15 20 15 45 0 26 5 42 15 45 10 4 15 20
15 50 0 32 4 44 15 44 12 0 15 13 15 55 0 42 3 55 15 55 12 0 15 14 15 69 0
52 4 70 15 75 11 4 15 22 15 75 0 52 4 70 15 75 12 4 15 24 15 90 0 57 4 86
12 88 9 3 14 53 16 176 3 95 8 172 13 172 5 0 9 65 9 145 0 80 -4 145 -9 145
-5 0 -10 79 -13 175 -2 116 -7 178 -15 183 -6 4 -12 46 -14 101 -3 64 -8 96
-16 99 -9 2 -13 24 -13 62 0 39 -5 64 -15 74 -10 9 -15 34 -15 70 0 43 -3 56
-15 56 -11 0 -15 12 -15 46 0 27 -6 51 -15 60 -9 9 -15 34 -15 60 0 32 -4 44
-15 44 -11 0 -15 12 -15 45 0 33 -4 45 -15 45 -11 0 -15 11 -15 39 0 25 -5 41
-15 45 -10 3 -15 19 -15 45 0 25 -5 41 -15 45 -8 3 -15 17 -15 31 0 14 -4 25
-10 25 -5 0 -13 18 -16 40 -4 22 -10 40 -14 40 -4 0 -11 16 -14 35 -4 19 -11
35 -16 35 -4 0 -11 14 -15 30 -4 17 -11 30 -16 30 -5 0 -9 11 -9 25 0 14 -7
28 -15 31 -8 4 -15 17 -15 30 0 14 -7 27 -15 30 -8 4 -15 17 -15 30 0 15 -6
24 -15 24 -10 0 -15 10 -15 30 0 20 -5 30 -15 30 -10 0 -15 10 -15 30 0 20 -5
30 -15 30 -9 0 -15 9 -15 24 0 13 -7 26 -15 30 -8 3 -15 10 -15 16 0 6 -7 18
-15 26 -8 9 -15 24 -15 35 0 10 -7 19 -15 19 -9 0 -15 9 -15 25 0 16 -6 25
-15 25 -8 0 -15 7 -15 15 0 8 -4 15 -10 15 -5 0 -10 6 -10 13 0 7 -9 20 -20
30 -11 9 -20 24 -20 32 0 8 -4 15 -10 15 -5 0 -10 7 -10 15 0 8 -6 15 -14 15
-8 0 -17 14 -21 30 -5 23 -12 30 -31 30 -15 0 -24 -6 -24 -15z" />
        <path
            d="M4888 6138 c-3 -7 -32 -14 -74 -16 -38 -3 -72 -9 -75 -14 -3 -5 -25
-12 -48 -15 -22 -3 -41 -9 -41 -14 0 -5 -18 -12 -39 -15 -22 -4 -42 -13 -45
-20 -3 -8 -17 -14 -31 -14 -14 0 -25 -4 -25 -9 0 -5 -13 -12 -30 -16 -16 -4
-30 -10 -30 -15 0 -5 -13 -11 -30 -15 -16 -4 -30 -11 -30 -16 0 -5 -7 -9 -15
-9 -9 0 -18 -7 -21 -15 -4 -8 -17 -15 -30 -15 -15 0 -24 -6 -24 -15 0 -8 -7
-15 -15 -15 -9 0 -18 -7 -21 -15 -4 -8 -17 -15 -30 -15 -15 0 -24 -6 -24 -15
0 -8 -7 -15 -15 -15 -8 0 -15 -7 -15 -15 0 -9 -9 -15 -25 -15 -16 0 -25 -6
-25 -15 0 -8 -7 -15 -15 -15 -8 0 -15 -7 -15 -15 0 -8 -4 -15 -10 -15 -5 0
-47 -38 -94 -85 -46 -47 -89 -85 -95 -85 -6 0 -11 -7 -11 -15 0 -9 -7 -18 -15
-21 -8 -4 -15 -12 -15 -20 0 -8 -7 -14 -15 -14 -8 0 -15 -7 -15 -15 0 -8 -7
-15 -15 -15 -9 0 -15 -9 -15 -25 l0 -25 1290 0 c1140 0 1290 2 1290 15 0 8 -7
15 -15 15 -8 0 -15 7 -15 15 0 8 -7 15 -15 15 -8 0 -15 5 -15 11 0 6 -13 24
-30 41 -16 16 -30 36 -30 44 0 8 -7 14 -15 14 -8 0 -15 7 -15 15 0 8 -7 15
-15 15 -8 0 -15 7 -15 15 0 8 -6 15 -14 15 -8 0 -28 14 -44 30 -17 17 -35 30
-41 30 -6 0 -11 7 -11 15 0 8 -7 15 -15 15 -8 0 -15 7 -15 15 0 8 -7 15 -15
15 -8 0 -15 7 -15 15 0 8 -9 15 -20 15 -11 0 -20 4 -20 10 0 5 -11 12 -25 16
-14 3 -25 12 -25 20 0 8 -7 14 -15 14 -8 0 -15 7 -15 15 0 9 -9 15 -25 15 -14
0 -25 5 -25 10 0 6 -8 14 -17 17 -10 4 -24 13 -31 20 -7 7 -22 13 -33 13 -10
0 -19 4 -19 10 0 5 -11 12 -25 16 -14 3 -25 10 -25 14 0 5 -13 11 -30 15 -16
4 -30 10 -30 15 0 5 -13 11 -30 15 -16 4 -30 10 -30 14 0 5 -19 11 -41 14 -23
3 -45 10 -48 15 -3 5 -24 12 -45 15 -22 4 -42 10 -45 15 -3 5 -35 11 -70 14
-37 3 -67 10 -69 16 -5 17 -379 17 -384 0z" />
        <path
            d="M3600 5170 c0 -5 -7 -10 -15 -10 -8 0 -15 -7 -15 -15 0 -9 -6 -18
-14 -21 -8 -3 -17 -16 -20 -30 -4 -13 -11 -24 -16 -24 -6 0 -10 -7 -10 -15 0
-8 -7 -15 -15 -15 -10 0 -15 -10 -15 -30 0 -20 -5 -30 -15 -30 -10 0 -15 -10
-15 -30 0 -20 -5 -30 -15 -30 -10 0 -15 -10 -15 -30 0 -20 -5 -30 -15 -30 -9
0 -15 -9 -15 -24 0 -13 -7 -26 -15 -30 -8 -3 -15 -16 -15 -30 0 -13 -7 -26
-15 -30 -8 -3 -15 -16 -15 -30 0 -13 -5 -26 -11 -28 -5 -2 -13 -22 -16 -46 -3
-23 -9 -42 -14 -42 -4 0 -10 -13 -14 -30 -4 -16 -10 -30 -15 -30 -4 0 -11 -20
-14 -45 -4 -25 -11 -45 -15 -45 -5 0 -12 -25 -16 -55 -3 -30 -10 -55 -14 -55
-5 0 -11 -22 -15 -50 -4 -27 -10 -50 -15 -50 -5 0 -12 -31 -15 -70 -4 -38 -11
-70 -15 -70 -5 0 -11 -37 -14 -82 -3 -45 -10 -84 -16 -86 -16 -5 -15 -789 1
-794 8 -3 13 -39 16 -104 3 -54 9 -102 15 -106 6 -3 12 -31 15 -62 2 -31 8
-56 12 -56 5 0 11 -27 15 -60 4 -33 11 -60 15 -60 4 0 11 -25 15 -55 3 -30 10
-55 14 -55 5 0 11 -19 14 -41 3 -23 10 -45 15 -48 5 -3 12 -24 15 -46 4 -22
11 -41 17 -43 5 -2 10 -15 10 -28 0 -14 7 -27 15 -30 8 -4 15 -18 15 -34 0
-16 7 -35 15 -44 8 -8 15 -26 15 -40 0 -16 6 -26 15 -26 10 0 15 -10 15 -30 0
-20 5 -30 15 -30 10 0 15 -10 15 -30 0 -20 5 -30 15 -30 10 0 15 -10 15 -30 0
-20 5 -30 15 -30 9 0 15 -9 15 -24 0 -13 7 -26 15 -30 8 -3 15 -12 15 -21 0
-8 4 -15 10 -15 5 0 12 -11 16 -24 3 -14 12 -27 20 -30 8 -3 14 -12 14 -21 0
-13 76 -15 684 -15 376 0 691 3 700 6 14 5 16 46 16 355 l0 349 -175 0 -175 0
0 105 0 105 30 0 c17 0 30 5 30 10 0 6 55 10 145 10 l145 0 0 190 c0 174 -1
190 -17 191 -10 0 -88 1 -173 2 l-155 2 -3 103 -3 102 116 0 c70 0 115 4 115
10 0 6 17 10 38 10 87 0 82 -11 82 195 0 158 -2 184 -16 189 -9 3 -87 6 -175
6 l-160 0 3 103 3 102 173 3 172 2 0 190 c0 162 -2 190 -15 190 -8 0 -15 5
-15 10 0 6 -60 10 -160 10 l-160 0 0 105 0 105 175 0 175 0 0 280 c0 242 -2
280 -15 280 -8 0 -15 5 -15 10 0 7 -230 10 -670 10 -440 0 -670 -3 -670 -10z" />
        <path
            d="M5210 5170 c0 -5 -7 -10 -15 -10 -13 0 -15 -38 -15 -280 l0 -280 175
0 175 0 0 -105 0 -105 -161 0 c-126 0 -164 -3 -175 -14 -11 -12 -14 -53 -14
-199 0 -183 0 -185 23 -191 12 -3 91 -6 175 -6 l152 0 0 -100 0 -100 -117 -1
c-165 -2 -196 -4 -201 -17 -2 -7 -10 -12 -18 -12 -12 0 -14 -31 -14 -174 0
-172 0 -174 23 -180 12 -3 91 -6 175 -6 l152 0 0 -115 0 -115 -175 0 -175 0 0
-184 c0 -158 2 -185 16 -190 9 -3 87 -6 175 -6 l159 0 0 -115 0 -115 -165 0
-165 0 0 -337 c0 -194 4 -344 10 -353 8 -13 102 -15 705 -19 640 -3 695 -2
695 13 0 9 7 19 15 22 8 4 15 17 15 30 0 15 6 24 15 24 8 0 15 9 15 19 0 11 7
26 15 34 7 8 17 26 21 41 3 14 10 26 15 26 5 0 9 7 9 15 0 8 7 15 15 15 11 0
15 11 15 40 0 29 4 40 15 40 10 0 15 10 15 30 0 20 5 30 15 30 10 0 15 10 15
29 0 16 6 31 15 35 8 3 15 17 15 31 0 15 7 33 15 41 8 9 15 28 15 44 0 16 5
30 10 32 6 2 13 21 17 43 3 22 10 43 15 46 5 3 12 25 15 48 3 22 9 41 13 41 4
0 11 20 14 45 4 25 11 45 15 45 5 0 11 23 13 51 3 28 10 54 15 58 6 3 13 42
16 85 3 43 10 82 15 85 5 3 12 51 15 106 3 56 10 101 16 103 15 5 15 679 1
684 -6 2 -13 41 -17 88 -3 47 -10 88 -15 91 -5 3 -11 35 -15 72 -3 37 -10 67
-14 67 -4 0 -11 27 -15 60 -4 33 -10 60 -14 60 -5 0 -11 24 -15 53 -4 28 -12
55 -17 58 -5 3 -12 25 -15 48 -3 22 -10 41 -14 41 -5 0 -9 14 -9 30 0 19 -5
30 -14 30 -8 0 -16 16 -19 42 -3 24 -11 44 -16 46 -6 2 -11 17 -11 33 0 19 -5
29 -15 29 -10 0 -15 10 -15 29 0 16 -7 36 -15 45 -8 8 -15 22 -15 30 0 9 -7
16 -15 16 -9 0 -15 9 -15 25 0 14 -7 28 -15 31 -8 4 -15 17 -15 30 0 15 -6 24
-15 24 -10 0 -15 10 -15 30 0 20 -5 30 -15 30 -9 0 -15 9 -15 24 0 13 -7 26
-15 30 -8 3 -15 12 -15 21 0 8 -7 15 -15 15 -8 0 -15 7 -15 15 0 8 -4 15 -10
15 -5 0 -12 11 -16 25 l-6 25 -684 0 c-449 0 -684 -3 -684 -10z" />
        <path
            d="M2220 1855 c0 -8 -7 -15 -15 -15 -8 0 -15 -7 -15 -15 0 -8 -7 -15
-15 -15 -8 0 -15 -4 -15 -10 0 -5 -7 -10 -15 -10 -8 0 -15 -7 -15 -15 0 -8 -7
-15 -15 -15 -8 0 -15 -7 -15 -15 0 -8 -7 -15 -15 -15 -8 0 -15 -7 -15 -15 0
-8 -7 -15 -15 -15 -8 0 -15 -7 -15 -15 0 -8 -7 -15 -15 -15 -8 0 -15 -7 -15
-15 0 -8 -7 -15 -15 -15 -8 0 -15 -7 -15 -15 0 -8 -7 -15 -15 -15 -8 0 -15 -7
-15 -15 0 -8 -5 -15 -11 -15 -6 0 -24 -13 -41 -30 -16 -16 -36 -30 -44 -30 -8
0 -14 -7 -14 -15 0 -8 -7 -15 -15 -15 -8 0 -15 -7 -15 -15 0 -8 -7 -15 -15
-15 -8 0 -15 -7 -15 -15 0 -8 -7 -15 -15 -15 -8 0 -15 -7 -15 -15 0 -8 -7 -15
-15 -15 -8 0 -15 -7 -15 -15 0 -8 -4 -15 -10 -15 -5 0 -19 -8 -30 -17 -24 -21
-27 -63 -5 -63 8 0 15 -7 15 -15 0 -8 7 -15 15 -15 8 0 15 -7 15 -15 0 -8 7
-15 15 -15 8 0 15 -7 15 -15 0 -8 7 -15 15 -15 8 0 15 -7 15 -15 0 -8 7 -15
15 -15 8 0 15 -7 15 -15 0 -8 7 -15 15 -15 8 0 15 -7 15 -15 0 -8 5 -15 11
-15 6 0 65 -54 131 -120 66 -66 126 -120 134 -120 8 0 14 -7 14 -15 0 -8 5
-15 11 -15 7 0 22 -11 35 -25 13 -14 28 -25 34 -25 5 0 10 -7 10 -15 0 -8 7
-15 15 -15 8 0 15 -5 15 -11 0 -14 205 -219 219 -219 6 0 11 -6 11 -14 0 -22
17 -29 56 -22 20 4 34 13 34 21 0 8 7 15 15 15 8 0 15 7 15 15 0 8 7 15 15 15
8 0 15 7 15 15 0 8 7 15 15 15 8 0 15 7 15 15 0 8 7 15 15 15 8 0 15 7 15 15
0 8 5 15 11 15 14 0 39 25 39 39 0 6 7 11 15 11 8 0 15 7 15 15 0 8 7 15 15
15 8 0 15 7 15 15 0 8 7 15 15 15 8 0 15 7 15 15 0 8 7 15 15 15 8 0 15 7 15
15 0 8 7 15 15 15 8 0 15 7 15 15 0 8 7 15 15 15 8 0 15 7 15 15 0 8 7 15 15
15 8 0 15 7 15 15 0 8 7 15 15 15 8 0 15 7 15 15 0 8 7 15 15 15 8 0 15 7 15
15 0 8 7 15 15 15 8 0 15 7 15 15 0 8 7 15 15 15 8 0 15 6 15 14 0 8 6 17 13
20 10 5 10 7 0 12 -7 3 -13 12 -13 20 0 8 -7 14 -15 14 -8 0 -15 7 -15 15 0 8
-7 15 -15 15 -8 0 -15 7 -15 15 0 8 -7 15 -15 15 -8 0 -15 7 -15 15 0 8 -7 15
-15 15 -8 0 -15 7 -15 15 0 8 -7 15 -15 15 -8 0 -15 7 -15 15 0 9 -9 15 -25
15 -16 0 -25 6 -25 15 0 8 -7 15 -15 15 -8 0 -15 7 -15 15 0 8 -7 15 -15 15
-8 0 -15 7 -15 15 0 8 -7 15 -15 15 -8 0 -15 7 -15 15 0 8 -7 15 -15 15 -8 0
-15 7 -15 15 0 8 -7 15 -15 15 -8 0 -15 7 -15 15 0 8 -7 15 -15 15 -8 0 -15 7
-15 15 0 8 -5 15 -10 15 -6 0 -27 18 -49 40 -21 22 -44 40 -50 40 -6 0 -11 7
-11 15 0 8 -7 15 -15 15 -8 0 -15 7 -15 15 0 8 -7 15 -15 15 -8 0 -15 7 -15
15 0 8 -7 15 -15 15 -8 0 -15 5 -15 11 0 6 -47 58 -104 115 -57 57 -109 104
-115 104 -6 0 -11 7 -11 15 0 8 -7 15 -15 15 -8 0 -15 -7 -15 -15z" />
        <path
            d="M7790 1739 c-69 -70 -131 -128 -137 -128 -7 -1 -13 -8 -13 -16 0 -8
-7 -15 -15 -15 -8 0 -15 -7 -15 -15 0 -8 -7 -15 -15 -15 -8 0 -15 -5 -15 -11
0 -14 -205 -219 -219 -219 -6 0 -11 -7 -11 -15 0 -8 -7 -15 -15 -15 -8 0 -15
-7 -15 -15 0 -8 -7 -15 -15 -15 -8 0 -15 -7 -15 -15 0 -8 -7 -15 -15 -15 -8 0
-15 -7 -15 -15 0 -8 -7 -15 -15 -15 -8 0 -15 -7 -15 -15 0 -8 -7 -15 -15 -15
-8 0 -15 -7 -15 -15 0 -8 -7 -15 -15 -15 -8 0 -15 -7 -15 -15 0 -8 -7 -15 -15
-15 -8 0 -15 -7 -15 -15 0 -8 -7 -15 -15 -15 -8 0 -15 -7 -15 -15 0 -8 -7 -15
-15 -15 -9 0 -15 -9 -15 -25 0 -16 6 -25 15 -25 8 0 15 -7 15 -15 0 -8 7 -15
15 -15 8 0 15 -7 15 -15 0 -8 7 -15 15 -15 8 0 15 -7 15 -15 0 -8 7 -15 15
-15 8 0 15 -7 15 -15 0 -8 7 -15 15 -15 8 0 15 -7 15 -15 0 -8 7 -15 15 -15 8
0 15 -7 15 -15 0 -8 7 -15 15 -15 8 0 15 -7 15 -15 0 -8 7 -15 15 -15 8 0 15
-7 15 -15 0 -8 7 -15 15 -15 8 0 15 -7 15 -15 0 -8 5 -15 11 -15 6 0 58 -47
116 -105 57 -58 111 -105 119 -105 8 0 14 -7 14 -15 0 -20 49 -20 56 0 4 8 12
15 19 15 7 0 61 47 118 105 58 58 110 105 116 105 6 0 11 7 11 15 0 8 7 15 15
15 8 0 15 7 15 15 0 8 7 15 15 15 8 0 15 7 15 15 0 8 7 15 15 15 8 0 15 7 15
15 0 8 7 15 15 15 8 0 15 7 15 15 0 8 7 15 15 15 8 0 15 7 15 15 0 8 7 15 15
15 8 0 15 7 15 15 0 8 7 15 15 15 8 0 15 7 15 15 0 8 5 15 11 15 14 0 99 85
99 99 0 6 7 11 15 11 8 0 15 7 15 15 0 8 7 15 15 15 8 0 15 7 15 15 0 8 7 15
15 15 8 0 15 7 15 15 0 8 7 15 15 15 8 0 15 7 15 15 0 8 7 15 15 15 8 0 15 7
15 15 0 8 7 15 15 15 8 0 15 7 15 15 0 8 7 15 15 15 8 0 15 4 15 10 0 5 11 12
25 16 16 4 25 13 25 26 0 21 -45 68 -66 68 -8 0 -14 7 -14 15 0 8 -7 15 -15
15 -8 0 -15 7 -15 15 0 8 -7 15 -15 15 -8 0 -15 7 -15 15 0 8 -7 15 -15 15 -8
0 -15 5 -15 11 0 14 -55 69 -69 69 -6 0 -11 7 -11 15 0 8 -7 15 -15 15 -8 0
-15 7 -15 15 0 8 -7 15 -15 15 -8 0 -15 7 -15 15 0 8 -7 15 -15 15 -8 0 -15 7
-15 15 0 8 -7 15 -15 15 -8 0 -15 7 -15 15 0 8 -7 15 -15 15 -8 0 -15 7 -15
15 0 8 -7 15 -15 15 -8 0 -15 7 -15 15 0 8 -5 15 -10 15 -6 0 -21 11 -34 25
-13 14 -28 25 -35 25 -6 0 -11 6 -11 14 0 8 -13 17 -30 21 -16 4 -30 11 -30
16 0 19 -19 3 -140 -122z" />
        <path
            d="M3770 1565 c0 -8 7 -15 15 -15 8 0 15 -7 15 -15 0 -8 7 -15 15 -15 8
0 15 -7 15 -15 0 -8 4 -15 10 -15 5 0 12 -11 16 -25 3 -14 12 -25 20 -25 8 0
14 -7 14 -15 0 -8 7 -15 15 -15 8 0 15 -7 15 -15 0 -8 7 -15 15 -15 8 0 15 -7
15 -15 0 -8 7 -15 15 -15 8 0 15 -7 15 -15 0 -8 7 -15 15 -15 8 0 15 -7 15
-15 0 -8 7 -15 15 -15 8 0 15 -6 15 -14 0 -8 11 -17 25 -20 14 -4 25 -11 25
-16 0 -6 7 -10 15 -10 8 0 15 -7 15 -15 0 -8 7 -15 15 -15 8 0 15 -7 15 -15 0
-8 6 -15 14 -15 8 0 16 -7 20 -15 3 -8 17 -15 31 -15 16 0 25 -6 25 -15 0 -8
7 -15 15 -15 8 0 15 -7 15 -15 0 -8 7 -15 15 -15 8 0 15 -4 15 -9 0 -5 14 -12
30 -16 17 -4 30 -11 30 -16 0 -5 11 -11 25 -15 14 -3 25 -10 25 -15 0 -5 7 -9
15 -9 9 0 18 -7 21 -15 4 -8 17 -15 30 -15 14 0 27 -7 30 -15 4 -8 17 -15 30
-15 14 0 27 -6 30 -14 3 -7 23 -16 45 -20 21 -3 39 -10 39 -15 0 -5 19 -11 42
-14 24 -3 44 -11 46 -16 2 -6 23 -11 47 -11 25 0 50 -6 59 -15 22 -22 470 -22
492 0 9 9 34 15 59 15 24 0 45 5 47 11 2 5 22 13 46 16 23 3 42 9 42 14 0 5
18 12 39 15 22 4 42 13 45 20 3 8 16 14 30 14 13 0 26 7 30 15 3 8 16 15 30
15 13 0 26 7 30 15 3 8 12 15 21 15 8 0 15 4 15 9 0 5 11 12 25 15 14 4 25 11
25 16 0 6 7 10 15 10 9 0 18 6 21 14 3 8 16 17 30 20 13 4 24 11 24 16 0 6 7
10 15 10 8 0 15 6 15 14 0 8 11 17 25 20 14 4 25 11 25 16 0 6 7 10 15 10 9 0
18 7 21 15 4 8 12 15 20 15 8 0 14 7 14 15 0 8 7 15 15 15 8 0 15 7 15 15 0 8
7 15 15 15 8 0 15 7 15 15 0 8 7 15 15 15 8 0 15 4 15 10 0 5 11 12 25 16 14
3 25 12 25 20 0 8 7 14 15 14 8 0 15 6 15 14 0 8 14 28 30 44 17 17 30 35 30
41 0 6 7 11 15 11 8 0 15 7 15 15 0 8 7 15 15 15 8 0 15 7 15 15 0 8 7 15 15
15 8 0 15 9 15 20 0 11 5 20 10 20 6 0 10 5 10 10 0 7 -445 10 -1315 10 -1162
0 -1315 -2 -1315 -15z" />
    </g>
</svg>